<svg width="35" height="35" viewBox="0 0 35 35" fill="none" xmlns="http://www.w3.org/2000/svg">
<path d="M0 8.75C0 3.91751 3.91751 0 8.75 0H26.25C31.0825 0 35 3.91751 35 8.75V26.25C35 31.0825 31.0825 35 26.25 35H8.75C3.91751 35 0 31.0825 0 26.25V8.75Z" fill="#162456"/>
<path d="M16.0857 29.697H18.914V14.2159H25.9847C26.2043 14.2159 26.4208 14.1599 26.6172 14.0525C26.8135 13.945 26.9843 13.7889 27.1161 13.5967L28.4948 11.5841C28.5866 11.4501 28.6363 11.2872 28.6363 11.1197C28.6363 10.9522 28.5866 10.7892 28.4948 10.6553L27.1161 8.64272C26.9843 8.45045 26.8135 8.29439 26.6172 8.18691C26.4208 8.07943 26.2043 8.02347 25.9847 8.02347H18.914V7.11628C18.914 6.7057 18.765 6.31193 18.4998 6.02161C18.2346 5.73128 17.8749 5.56818 17.4999 5.56818C17.1248 5.56818 16.7651 5.73128 16.4999 6.02161C16.2347 6.31193 16.0857 6.7057 16.0857 7.11628V15.764H9.01504C8.7955 15.764 8.57898 15.82 8.38262 15.9274C8.18626 16.0349 8.01545 16.191 7.88373 16.3832L6.50494 18.3958C6.41315 18.5298 6.36353 18.6927 6.36353 18.8602C6.36353 19.0277 6.41315 19.1907 6.50494 19.3246L7.88373 21.3372C8.01545 21.5295 8.18626 21.6855 8.38262 21.793C8.57898 21.9005 8.7955 21.9564 9.01504 21.9564H16.0857V29.697Z" fill="#E2E8F0"/>
</svg>
