<svg width="21" height="18" viewBox="0 0 21 18" fill="none" xmlns="http://www.w3.org/2000/svg">
<path d="M17.9568 17.841C19.9824 17.841 21 16.8429 21 14.8371V3.0039C21 0.998129 19.9824 0 17.9568 0H9.53557C8.40182 0 7.42271 0.290673 6.62842 1.13375L0.920396 7.06505C0.290673 7.71421 0 8.29556 0 8.90626C0 9.50704 0.281163 10.0983 0.920396 10.7475L6.63793 16.649C7.44256 17.4826 8.41174 17.8315 9.54549 17.8315L17.9568 17.841ZM15.6992 13.2089C15.4665 13.2089 15.263 13.1221 15.0981 12.9666L12.2682 10.1177L9.42889 12.9666C9.26433 13.1216 9.0609 13.2089 8.82811 13.2089C8.35344 13.2089 7.95568 12.8215 7.95568 12.3464C7.95568 12.1235 8.05285 11.9106 8.21782 11.7361L11.0377 8.90626L8.21782 6.08636C8.05285 5.91187 7.95609 5.69852 7.95609 5.47565C7.95609 4.99106 8.35303 4.59371 8.82853 4.59371C9.05098 4.59371 9.26433 4.68095 9.43881 4.85544L12.2682 7.68526L15.0881 4.85544C15.263 4.68095 15.476 4.59371 15.6988 4.59371C16.1834 4.59371 16.5713 4.99106 16.5713 5.47565C16.5713 5.69893 16.484 5.91187 16.3095 6.08636L13.4896 8.90626L16.3095 11.7361C16.484 11.9106 16.5713 12.1235 16.5713 12.3464C16.5713 12.8215 16.1743 13.2089 15.6992 13.2089Z" fill="#00598A" fill-opacity="0.63"/>
</svg>
