<svg width="30" height="30" viewBox="0 0 30 30" fill="none" xmlns="http://www.w3.org/2000/svg">
<path d="M28.32 1.6485C27.22 0.548501 25.8965 -0.000998638 24.3495 1.3624e-06H5.619C4.071 1.3624e-06 2.7475 0.549501 1.6485 1.6485C0.548501 2.7485 -0.000998638 4.072 1.3624e-06 5.619V24.3495C1.3624e-06 25.8975 0.549501 27.221 1.6485 28.32C2.7485 29.42 4.072 29.9695 5.619 29.9685H9.99C10.275 29.9685 10.4895 29.9585 10.6335 29.9385C10.8012 29.9054 10.9526 29.8159 11.0625 29.685C11.2055 29.535 11.277 29.3175 11.277 29.0325L11.2665 27.705C11.2605 26.859 11.2575 26.189 11.2575 25.695L10.8075 25.773C10.5225 25.825 10.162 25.848 9.726 25.842C9.27105 25.8333 8.81756 25.7877 8.37 25.7055C7.89315 25.619 7.44435 25.4183 7.062 25.1205C6.66067 24.817 6.36137 24.3984 6.204 23.9205L6.009 23.4705C5.84401 23.1159 5.63757 22.782 5.394 22.476C5.114 22.112 4.831 21.865 4.545 21.735L4.41 21.6375C4.31626 21.5696 4.23069 21.4911 4.155 21.4035C4.08271 21.3221 4.0235 21.23 3.9795 21.1305C3.9405 21.0385 3.973 20.9635 4.077 20.9055C4.181 20.8455 4.37 20.816 4.644 20.817L5.034 20.877C5.294 20.928 5.6155 21.0835 5.9985 21.3435C6.38559 21.6074 6.70894 21.9543 6.945 22.359C7.245 22.891 7.606 23.2975 8.028 23.5785C8.451 23.8585 8.877 23.9985 9.306 23.9985C9.735 23.9985 10.106 23.966 10.419 23.901C10.7221 23.8382 11.0167 23.7395 11.2965 23.607C11.4135 22.736 11.732 22.066 12.252 21.597C11.5776 21.5304 10.9092 21.413 10.2525 21.246C9.61162 21.0702 8.99531 20.8147 8.418 20.4855C7.81387 20.1566 7.28026 19.7122 6.8475 19.1775C6.4315 18.6575 6.09 17.975 5.823 17.13C5.557 16.284 5.424 15.308 5.424 14.202C5.424 12.629 5.9375 11.289 6.9645 10.182C6.4845 8.999 6.53 7.673 7.101 6.204C7.479 6.086 8.0385 6.1735 8.7795 6.4665C9.5205 6.7595 10.0635 7.0095 10.4085 7.2165C10.7535 7.4265 11.03 7.6025 11.238 7.7445C12.4573 7.40452 13.7177 7.23392 14.9835 7.2375C16.2715 7.2375 17.5205 7.4065 18.7305 7.7445L19.4715 7.2765C20.0415 6.9343 20.6427 6.64701 21.267 6.4185C21.956 6.1585 22.483 6.087 22.848 6.204C23.433 7.674 23.4845 9.0005 23.0025 10.1835C24.0305 11.2885 24.5445 12.6285 24.5445 14.2035C24.5445 15.3095 24.411 16.288 24.144 17.139C23.878 17.991 23.5335 18.674 23.1105 19.188C22.6689 19.7146 22.1333 20.1545 21.531 20.4855C20.901 20.8365 20.2895 21.09 19.6965 21.246C19.0398 21.4135 18.3714 21.5314 17.697 21.5985C18.372 22.1835 18.71 23.1065 18.711 24.3675V29.0325C18.711 29.2525 18.7435 29.431 18.8085 29.568C18.8388 29.6338 18.8821 29.6928 18.9357 29.7415C18.9893 29.7902 19.0521 29.8276 19.1205 29.8515C19.2635 29.9035 19.3905 29.9355 19.5015 29.9475C19.6125 29.9615 19.7715 29.968 19.9785 29.967H24.3495C25.8975 29.967 27.221 29.4175 28.32 28.3185C29.419 27.2195 29.9685 25.896 29.9685 24.348V5.619C29.9685 4.071 29.42 2.7475 28.32 1.6485Z" fill="#E2E8F0" fill-opacity="0.85"/>
</svg>
