<svg width="28" height="28" viewBox="0 0 28 28" fill="none" xmlns="http://www.w3.org/2000/svg">
<path d="M24.9167 0.25C25.7344 0.25 26.5187 0.57485 27.0969 1.15309C27.6751 1.73132 28 2.51558 28 3.33333V24.9167C28 25.7344 27.6751 26.5187 27.0969 27.0969C26.5187 27.6751 25.7344 28 24.9167 28H3.33333C2.51558 28 1.73132 27.6751 1.15309 27.0969C0.57485 26.5187 0.25 25.7344 0.25 24.9167V3.33333C0.25 2.51558 0.57485 1.73132 1.15309 1.15309C1.73132 0.57485 2.51558 0.25 3.33333 0.25H24.9167ZM24.1458 24.1458V15.975C24.1458 14.6421 23.6163 13.3637 22.6738 12.4212C21.7313 11.4787 20.4529 10.9492 19.12 10.9492C17.8096 10.9492 16.2833 11.7508 15.5433 12.9533V11.2421H11.2421V24.1458H15.5433V16.5454C15.5433 15.3583 16.4992 14.3871 17.6863 14.3871C18.2587 14.3871 18.8077 14.6145 19.2124 15.0192C19.6172 15.424 19.8446 15.973 19.8446 16.5454V24.1458H24.1458ZM6.23167 8.82167C6.91858 8.82167 7.57736 8.54879 8.06307 8.06307C8.54879 7.57736 8.82167 6.91858 8.82167 6.23167C8.82167 4.79792 7.66542 3.62625 6.23167 3.62625C5.54067 3.62625 4.87797 3.90075 4.38936 4.38936C3.90075 4.87797 3.62625 5.54067 3.62625 6.23167C3.62625 7.66542 4.79792 8.82167 6.23167 8.82167ZM8.37458 24.1458V11.2421H4.10417V24.1458H8.37458Z" fill="#E2E8F0" fill-opacity="0.85"/>
</svg>
