<svg width="13" height="13" viewBox="0 0 13 13" fill="none" xmlns="http://www.w3.org/2000/svg">
<path d="M6.5 6.5C5.60625 6.5 4.84115 6.18177 4.20469 5.54531C3.56823 4.90885 3.25 4.14375 3.25 3.25C3.25 2.35625 3.56823 1.59115 4.20469 0.954688C4.84115 0.318229 5.60625 0 6.5 0C7.39375 0 8.15885 0.318229 8.79531 0.954688C9.43177 1.59115 9.75 2.35625 9.75 3.25C9.75 4.14375 9.43177 4.90885 8.79531 5.54531C8.15885 6.18177 7.39375 6.5 6.5 6.5ZM0 11.375V10.725C0 10.2646 0.118625 9.84154 0.355875 9.45587C0.593125 9.07021 0.907833 8.77554 1.3 8.57187C2.13958 8.15208 2.99271 7.83737 3.85937 7.62775C4.72604 7.41812 5.60625 7.31304 6.5 7.3125C7.39375 7.31196 8.27396 7.41704 9.14062 7.62775C10.0073 7.83846 10.8604 8.15317 11.7 8.57187C12.0927 8.775 12.4077 9.06967 12.6449 9.45587C12.8822 9.84208 13.0005 10.2651 13 10.725V11.375C13 11.8219 12.841 12.2046 12.5231 12.5231C12.2051 12.8416 11.8224 13.0005 11.375 13H1.625C1.17812 13 0.795708 12.841 0.47775 12.5231C0.159791 12.2051 0.000541667 11.8224 0 11.375ZM1.625 11.375H11.375V10.725C11.375 10.576 11.3379 10.4406 11.2637 10.3188C11.1895 10.1969 11.0912 10.1021 10.9687 10.0344C10.2375 9.66875 9.49948 9.39467 8.75469 9.21212C8.00989 9.02958 7.25833 8.93804 6.5 8.9375C5.74167 8.93696 4.9901 9.0285 4.24531 9.21212C3.50052 9.39575 2.7625 9.66983 2.03125 10.0344C1.90937 10.1021 1.81106 10.1969 1.73631 10.3188C1.66156 10.4406 1.62446 10.576 1.625 10.725V11.375ZM6.5 4.875C6.94687 4.875 7.32956 4.71602 7.64806 4.39806C7.96656 4.0801 8.12554 3.69742 8.125 3.25C8.12446 2.80258 7.96548 2.42017 7.64806 2.10275C7.33064 1.78533 6.94796 1.62608 6.5 1.625C6.05204 1.62392 5.66962 1.78317 5.35275 2.10275C5.03587 2.42233 4.87662 2.80475 4.875 3.25C4.87337 3.69525 5.03262 4.07794 5.35275 4.39806C5.67287 4.71819 6.05529 4.87717 6.5 4.875Z" fill="#F1F5F9"/>
</svg>
